<svg xmlns="http://www.w3.org/2000/svg" viewBox="0 0 256 256" role="img" aria-label="ChessAnalyzer logo">
  <!-- Black background circle -->
  <circle cx="128" cy="128" r="120" fill="#000000"/>
  
  <!-- White outlined knight -->
  <g fill="none" stroke="#FFFFFF" stroke-width="4" stroke-linejoin="round">
    <!-- Knight head with mane -->
    <path d="M80 60C80 50 90 40 100 40C110 40 120 50 120 60C120 70 110 80 100 80C90 80 80 70 80 60Z"/>
    <path d="M85 65C85 55 95 45 105 45C115 45 125 55 125 65C125 75 115 85 105 85C95 85 85 75 85 65Z"/>
    
    <!-- Knight neck -->
    <path d="M95 80L95 100L115 100L115 80Z"/>
    
    <!-- Knight body -->
    <path d="M85 100L125 100L125 120L85 120Z"/>
    
    <!-- Knight base -->
    <path d="M75 120L135 120L135 140L75 140Z"/>
    <path d="M70 140L140 140L140 160L70 160Z"/>
    
    <!-- Knight mane detail -->
    <path d="M75 70C75 60 85 50 95 50C105 50 115 60 115 70C115 80 105 90 95 90C85 90 75 80 75 70Z"/>
    <path d="M125 70C125 60 135 50 145 50C155 50 165 60 165 70C165 80 155 90 145 90C135 90 125 80 125 70Z"/>
  </g>
</svg>
